<?xml version="1.0" encoding="iso-8859-1"?>
<!-- Generator: Adobe Illustrator 19.0.0, SVG Export Plug-In . SVG Version: 6.00 Build 0)  -->
<svg version="1.1" id="Capa_1" xmlns="http://www.w3.org/2000/svg" xmlns:xlink="http://www.w3.org/1999/xlink" x="0px" y="0px"
	 viewBox="0 0 496 496" style="enable-background:new 0 0 496 496;" xml:space="preserve">
<g>
	<g>
		<g>
			<path d="M288,288v-1.352c0-5.808-1.576-11.504-4.56-16.472L256,224.456l-27.44,45.728c-2.984,4.968-4.56,10.656-4.56,16.464V288
				c0,17.648,14.352,32,32,32S288,305.648,288,288z M240,288v-1.352c0-2.896,0.792-5.752,2.28-8.232L256,255.544l13.72,22.864
				c1.488,2.488,2.28,5.344,2.28,8.24V288c0,8.824-7.176,16-16,16C247.176,304,240,296.824,240,288z"/>
			<path d="M74.304,464c17.648,0,32-14.352,32-32s-14.352-32-32-32s-32,14.352-32,32S56.656,464,74.304,464z M74.304,416
				c8.824,0,16,7.176,16,16c0,8.824-7.176,16-16,16c-8.824,0-16-7.176-16-16C58.304,423.176,65.488,416,74.304,416z"/>
			<path d="M437.536,384.408C434.264,374.592,425.12,368,414.776,368h-5.84c-6.384,0-12.384,2.488-16.912,6.984l-0.288-2.064
				l-0.168-0.84c-1.888-7.56-7.368-13.752-14.632-16.56c-7.296-2.816-15.496-1.904-21.96,2.424l-1.568,1.048
				c-3.472,2.312-6.288,5.504-8.16,9.232l-18.112,36.224l-41.712-4.168c-1.168-0.12-2.312-0.312-3.448-0.592l-17.84-4.464
				c0.456-0.352,0.872-0.744,1.36-1.072l19.856-13.24c8.416-5.616,12.416-15.984,9.968-25.784l-1.392-5.544
				c-3.208-12.832-16.272-20.696-29.104-17.456l-13.08,3.264c-3.376,0.84-6.472,2.368-9.184,4.536l-59.744,47.8
				C172.944,395.64,160.52,400,147.856,400H136v-32H0v128h136v-22.336l14.816,3.704c6.976,1.752,14.152,2.632,21.344,2.632h129.168
				c9.48,0,18.84-1.512,27.832-4.512l41.76-13.92c12.888-4.296,24.784-11.64,34.4-21.256l27.656-27.656
				c6.472-6.472,8.688-15.872,5.8-24.56L437.536,384.408z M120,480H16v-96h8v40h16v-40h80V480z M359.56,375.376
				c0.616-1.24,1.56-2.304,2.72-3.08l1.568-1.048c2.192-1.472,4.856-1.76,7.32-0.808c2.344,0.904,4.08,2.784,4.792,5.168
				l1.872,13.536l-10.464,10.464c-5.112,5.112-12.168,7.592-19.36,6.912l-3.84-0.384L359.56,375.376z M421.656,401.336L394,428.992
				c-7.864,7.864-17.592,13.872-28.144,17.392l-41.768,13.92C316.744,462.76,309.08,464,301.32,464H172.16
				c-5.872,0-11.76-0.728-17.472-2.152L136,457.184V416h11.856c16.28,0,32.248-5.6,44.976-15.776l59.744-47.8
				c0.896-0.728,1.92-1.232,3.056-1.512l13.096-3.272c4.256-1.04,8.624,1.544,9.696,5.824l1.392,5.544
				c0.816,3.264-0.52,6.72-3.328,8.592l-19.848,13.232c-14.032,9.352-20.712,26.624-16.616,42.976l2.528,10.128l15.512-3.872
				l-2.528-10.136c-0.872-3.488-0.896-7.04-0.224-10.432l22.8,5.704c1.864,0.472,3.784,0.808,5.72,1l62.592,6.256
				c11.952,1.176,23.744-3.008,32.264-11.52l24.584-24.584c1.496-1.504,3.56-2.352,5.656-2.352h5.84
				c3.448,0,6.496,2.192,7.592,5.472l1.216,3.672C424.552,396.04,423.816,399.176,421.656,401.336z"/>
			<rect x="24" y="440" width="16" height="16"/>
			<path d="M496,80V64h-33.472c-3.312-9.288-12.112-16-22.528-16h-32c-10.416,0-19.216,6.712-22.528,16H344V40
				c0-22.056-17.944-40-40-40H192c-13.232,0-24,10.768-24,24s10.768,24,24,24h88v16h-16c-22.056,0-40,17.944-40,40v96h64v-72h97.472
				c3.312,9.288,12.112,16,22.528,16h32c10.416,0,19.216-6.712,22.528-16H496v-16h-32V80H496z M192,32c-4.416,0-8-3.584-8-8
				s3.584-8,8-8h112c13.232,0,24,10.768,24,24v8h-32V32H192z M272,184h-32v-16h32V184z M384,112h-96c-8.824,0-16,7.176-16,16v24h-32
				v-48c0-13.232,10.768-24,24-24h32V64h32v16h56V112z M448,120c0,4.416-3.584,8-8,8h-32c-4.416,0-8-3.584-8-8V72
				c0-4.416,3.584-8,8-8h32c4.416,0,8,3.584,8,8V120z"/>
			<rect x="416" y="80" width="16" height="32"/>
		</g>
	</g>
</g>
<g>
</g>
<g>
</g>
<g>
</g>
<g>
</g>
<g>
</g>
<g>
</g>
<g>
</g>
<g>
</g>
<g>
</g>
<g>
</g>
<g>
</g>
<g>
</g>
<g>
</g>
<g>
</g>
<g>
</g>
</svg>
